<svg xmlns="http://www.w3.org/2000/svg" viewBox="0 0 128 128" width="128" height="128" role="img">
  <defs>
    <linearGradient id="g0" x1="0" y1="0" x2="0.35" y2="1">
      <stop offset="0" stop-color="#6C63FF"/><stop offset="1" stop-color="#3B2FD9"/>
    </linearGradient>
    <linearGradient id="s0" x1="0" y1="0" x2="0.7" y2="1">
      <stop offset="0" stop-color="#fff" stop-opacity=".44"/>
      <stop offset=".46" stop-color="#fff" stop-opacity=".05"/>
      <stop offset="1" stop-color="#fff" stop-opacity="0"/>
    </linearGradient>
    <linearGradient id="r0" x1="0" y1="0" x2="0" y2="1">
      <stop offset="0" stop-color="#fff" stop-opacity=".55"/>
      <stop offset="1" stop-color="#fff" stop-opacity=".12"/>
    </linearGradient>
    <filter id="b0" x="-40%" y="-40%" width="180%" height="180%">
      <feGaussianBlur stdDeviation="5"/>
    </filter>
    <!-- Ichki nur shu shaklga kesiladi, aks holda ramkadan tashqariga
         chiqib, ikonka atrofida oq halo hosil qilardi. -->
    <clipPath id="c0">
      <rect x="2" y="2" width="124" height="124" rx="30"/>
    </clipPath>
  </defs>

  <g clip-path="url(#c0)">
    <rect x="2" y="2" width="124" height="124" rx="30" fill="url(#g0)"/>
    <ellipse cx="40.96" cy="28.16" rx="56.32" ry="38.4"
             fill="#fff" opacity=".28" filter="url(#b0)"/>
    <rect x="2" y="2" width="124" height="124" rx="30" fill="url(#s0)"/>
  </g>
  <g transform="translate(31,31) scale(2.75)"
     fill="none" stroke="#fff" stroke-width="1.75"
     stroke-linecap="round" stroke-linejoin="round" opacity=".97"><path d="M12 4 2 9l10 5 10-5-10-5Z"/><path d="M5 11.5V17c0 1.7 3.1 3 7 3s7-1.3 7-3v-5.5"/><path d="M22 9v6"/></g>
  <rect x="2.75" y="2.75" width="122.5" height="122.5" rx="29.25"
        fill="none" stroke="url(#r0)" stroke-width="1.5"/>
</svg>